<svg width="60" height="60" viewBox="0 0 60 60" fill="none" xmlns="http://www.w3.org/2000/svg">
<path d="M33.15 26.25H38.15V28.75H33.15V26.25Z" fill="black"/>
<path d="M50 10H10C8.67392 10 7.40215 10.5268 6.46447 11.4645C5.52678 12.4021 5 13.6739 5 15V45C5 46.3261 5.52678 47.5979 6.46447 48.5355C7.40215 49.4732 8.67392 50 10 50H50C51.3261 50 52.5979 49.4732 53.5355 48.5355C54.4732 47.5979 55 46.3261 55 45V15C55 13.6739 54.4732 12.4021 53.5355 11.4645C52.5979 10.5268 51.3261 10 50 10V10ZM21 37.5L20 34.425H15.15L14.05 37.5H10L15.5 22.5H19.55L25 37.5H21ZM41.9 28.75C41.9102 29.2453 41.8202 29.7375 41.6354 30.1971C41.4505 30.6566 41.1747 31.0741 40.8244 31.4244C40.4741 31.7747 40.0566 32.0505 39.5971 32.2354C39.1375 32.4202 38.6453 32.5102 38.15 32.5H33.15V37.5H29.4V22.5H38.15C38.6453 22.4898 39.1375 22.5798 39.5971 22.7646C40.0566 22.9495 40.4741 23.2253 40.8244 23.5756C41.1747 23.9259 41.4505 24.3434 41.6354 24.8029C41.8202 25.2625 41.9102 25.7547 41.9 26.25V28.75ZM50 37.5H46.25V22.5H50V37.5Z" fill="black"/>
<path d="M16.075 31.9252H18.975L17.525 27.9502L16.075 31.9252Z" fill="black"/>
</svg>
