<svg width="60" height="60" viewBox="0 0 60 60" fill="none" xmlns="http://www.w3.org/2000/svg">
<path d="M6.5 26.4748L20.95 11.9998L25.175 16.2498C24.575 18.3748 25.55 20.6998 27.5 21.8248V35.6748C26 36.5248 25 38.1498 25 39.9998C25 41.3259 25.5268 42.5977 26.4645 43.5353C27.4022 44.473 28.6739 44.9998 30 44.9998C31.3261 44.9998 32.5979 44.473 33.5355 43.5353C34.4732 42.5977 35 41.3259 35 39.9998C35 38.1498 34 36.5248 32.5 35.6748V23.5248L37.675 28.7498C37.5 29.1248 37.5 29.5498 37.5 29.9998C37.5 31.3259 38.0268 32.5977 38.9645 33.5353C39.9022 34.473 41.1739 34.9998 42.5 34.9998C43.8261 34.9998 45.0979 34.473 46.0355 33.5353C46.9732 32.5977 47.5 31.3259 47.5 29.9998C47.5 28.6737 46.9732 27.402 46.0355 26.4643C45.0979 25.5266 43.8261 24.9998 42.5 24.9998C42.05 24.9998 41.625 24.9998 41.25 25.1748L34.825 18.7498C35.1354 17.5919 35.0151 16.3607 34.4863 15.2848C33.9576 14.2089 33.0564 13.3614 31.95 12.8998C30.875 12.4998 29.75 12.3998 28.75 12.6748L24.5 8.44981L26.475 6.4998C28.425 4.5248 31.575 4.5248 33.525 6.4998L53.5 26.4748C55.475 28.4248 55.475 31.5748 53.5 33.5248L33.525 53.4998C31.575 55.4748 28.425 55.4748 26.475 53.4998L6.5 33.5248C4.525 31.5748 4.525 28.4248 6.5 26.4748Z" fill="black"/>
</svg>
