<svg width="60" height="60" viewBox="0 0 60 60" fill="none" xmlns="http://www.w3.org/2000/svg">
<path d="M42.3356 21.3002C42.6187 21.4445 42.8812 21.6395 43.095 21.8758L48.9656 19.2583L43.4887 13.8283L42.2569 21.2214L42.3356 21.3002ZM30.1481 16.367C30.4406 16.7964 30.615 17.2839 30.675 17.8014L39.4144 21.5045C39.6769 21.3002 39.9787 21.152 40.3012 21.0639L41.7356 12.1858L36.4125 6.60016L30.1444 16.2283L30.1481 16.367ZM59.9794 30.0883L50.6137 20.7227L44.2369 23.3308L59.9025 29.9908C59.9025 29.9908 60.0394 30.0883 59.9794 30.0883ZM58.4175 31.6127L43.38 25.1852C43.1707 25.4623 42.9081 25.6947 42.6077 25.8689C42.3073 26.0431 41.9751 26.1555 41.6306 26.1995L40.02 36.0939C40.4981 36.5814 40.7719 37.2358 40.7719 37.9183L49.8525 39.8233L58.1831 31.5508V31.3952L58.4175 31.6127ZM38.4956 23.1245L30.3337 19.6464C30.053 20.0784 29.6653 20.4304 29.2083 20.6683C28.7513 20.9062 28.2405 21.0218 27.7256 21.0039H27.2287L20.4619 31.4439L38.5275 23.6214V23.642C38.5181 23.5022 38.5181 23.3619 38.5275 23.222C38.5369 23.192 38.5275 23.1545 38.4975 23.1245H38.4956ZM48.4181 41.3983L40.4306 39.7464C40.1339 40.1351 39.7345 40.4332 39.2775 40.607L37.3725 52.4139L48.4669 41.417C48.4669 41.417 48.4462 41.477 48.4162 41.477L48.4181 41.3983ZM37.245 40.5845C36.8666 40.4297 36.5299 40.1882 36.2618 39.8795C35.9938 39.5708 35.802 39.2034 35.7019 38.807L20.8294 35.7527L20.6137 36.0958L34.1119 55.6164L34.9219 54.8158L37.2169 40.6352C37.2169 40.6352 37.2937 40.6933 37.245 40.6652V40.5845ZM21.1425 33.9545L35.8406 36.9827C36.0514 36.6132 36.3493 36.301 36.7085 36.0732C37.0677 35.8454 37.4772 35.7089 37.9012 35.6758L39.4931 25.9483L39.15 25.6558L20.88 33.4877C20.9775 33.632 21.0656 33.7895 21.1425 33.9545V33.9545ZM14.9794 36.4052L14.6662 36.0958L8.32874 38.7002L11.4037 41.7583L14.9006 36.3283L14.9794 36.4052ZM19.1606 37.4027C18.7187 37.6017 18.2408 37.7083 17.7562 37.7158C17.3644 37.7158 16.9931 37.6558 16.6219 37.5302L12.765 43.1458L29.6794 59.9027L32.6569 56.942L19.1606 37.4027ZM16.7869 30.8008C17.04 30.7727 17.3044 30.7727 17.5669 30.8008C17.8519 30.7633 18.1444 30.7633 18.4275 30.8008L25.2619 20.1752C24.7295 19.6212 24.4319 18.8829 24.4312 18.1145C24.4031 17.8879 24.4031 17.6587 24.4312 17.432L16.1306 13.5939L9.44999 20.0964L16.7869 30.8008ZM17.5406 12.2945L25.635 15.7427C26.2196 15.2544 26.9645 15.0006 27.7256 15.0302C28.0575 15.0395 28.3875 15.0883 28.71 15.1858L35.0306 5.32328L29.805 0.0976562L17.5406 12.137C17.5406 12.137 17.52 12.2645 17.5406 12.2945V12.2945ZM14.5125 32.7058C14.6775 32.4039 14.8819 32.1208 15.1181 31.8658L8.19374 21.5327L0.00186157 29.492L14.5125 32.7058ZM13.8581 34.4533L1.32749 31.8358L6.83436 37.4233L13.7794 34.4739L13.8581 34.4533Z" fill="black"/>
</svg>
