<svg width="60" height="60" viewBox="0 0 60 60" fill="none" xmlns="http://www.w3.org/2000/svg">
<g clip-path="url(#clip0_22_291)">
<path d="M20.715 26.4448L21.995 4.80233C22.0052 4.63298 22.0714 4.47182 22.1832 4.3442C22.2949 4.21657 22.446 4.12973 22.6125 4.09733L43.4425 0.0148261C43.5711 -0.0104371 43.7041 -0.00221546 43.8287 0.0387023C43.9532 0.0796201 44.0652 0.151861 44.1538 0.248493C44.2424 0.345125 44.3047 0.462905 44.3346 0.590532C44.3646 0.71816 44.3613 0.851351 44.325 0.977326L40.43 14.4848C40.3939 14.6106 40.3906 14.7435 40.4204 14.8708C40.4503 14.9982 40.5124 15.1158 40.6006 15.2123C40.6889 15.3089 40.8005 15.3812 40.9247 15.4223C41.0489 15.4635 41.1815 15.4721 41.31 15.4473L47.28 14.2973C47.4205 14.2699 47.5658 14.2823 47.6996 14.3334C47.8333 14.3844 47.95 14.4719 48.0365 14.586C48.1229 14.7001 48.1757 14.8361 48.1887 14.9786C48.2017 15.1212 48.1744 15.2645 48.11 15.3923L31.135 49.2673L30.8275 49.7423C30.7614 49.8499 30.6687 49.9385 30.5583 49.9998C30.448 50.0611 30.3237 50.093 30.1975 50.0923C29.755 50.0923 29.3225 49.7123 29.435 49.1698L32.1725 35.9173C32.1994 35.7875 32.1921 35.6529 32.1513 35.5268C32.1105 35.4007 32.0376 35.2873 31.9398 35.1978C31.842 35.1084 31.7226 35.0458 31.5934 35.0164C31.4641 34.9869 31.3294 34.9915 31.2025 35.0298L27.62 36.1173C27.4932 36.156 27.3585 36.161 27.2291 36.1319C27.0998 36.1028 26.9802 36.0406 26.8821 35.9513C26.7841 35.8621 26.7109 35.7489 26.6697 35.6229C26.6286 35.4968 26.6209 35.3622 26.6475 35.2323L28.3725 26.7948C28.3987 26.6689 28.3926 26.5383 28.3549 26.4153C28.3173 26.2923 28.2492 26.1807 28.157 26.091C28.0647 26.0013 27.9514 25.9363 27.8274 25.902C27.7034 25.8677 27.5727 25.8652 27.4475 25.8948L21.6475 27.2348C21.5317 27.2614 21.4114 27.2607 21.296 27.2327C21.1805 27.2047 21.0732 27.1502 20.9825 27.0736C20.8918 26.9969 20.8201 26.9002 20.7733 26.7911C20.7264 26.6819 20.7056 26.5634 20.7125 26.4448H20.715ZM58.155 6.62983L43.21 9.34983L41.85 14.0673L47.0425 13.0673C47.4449 12.9871 47.8622 13.0326 48.2379 13.1976C48.6135 13.3626 48.9294 13.6392 49.1425 13.9898C49.3234 14.2814 49.4262 14.6146 49.4411 14.9575C49.456 15.3003 49.3824 15.6412 49.2275 15.9473L32.25 49.8248L32.2175 49.8873L32.18 49.9448L31.875 50.4198C31.6947 50.7022 31.4464 50.9349 31.1529 51.0965C30.8594 51.2581 30.5301 51.3435 30.195 51.3448C29.8916 51.3432 29.5922 51.2746 29.3183 51.1442C29.0443 51.0137 28.8025 50.8244 28.61 50.5898C28.4228 50.3581 28.2897 50.0874 28.2205 49.7976C28.1513 49.5078 28.1477 49.2062 28.21 48.9148L30.7825 36.4623L27.9825 37.3123C27.5995 37.4277 27.1909 37.4271 26.8083 37.3105C26.4257 37.1939 26.0861 36.9666 25.8325 36.6573C25.6434 36.4264 25.5083 36.1562 25.4369 35.8665C25.3655 35.5767 25.3598 35.2746 25.42 34.9823L26.995 27.2823L21.9275 28.4523C21.5845 28.5309 21.2268 28.5185 20.8901 28.4163C20.5533 28.3141 20.2491 28.1258 20.0075 27.8698C19.8202 27.6696 19.6756 27.4333 19.5823 27.1755C19.4891 26.9176 19.4492 26.6436 19.465 26.3698L20.4375 9.94483L1.8375 6.61983C1.55092 6.56811 1.25554 6.59925 0.986043 6.70959C0.71655 6.81994 0.484144 7.0049 0.316127 7.24275C0.14811 7.4806 0.0514609 7.76145 0.0375332 8.05233C0.0236055 8.3432 0.0929779 8.63201 0.237501 8.88483L28.95 59.2273C29.0841 59.463 29.2785 59.6587 29.5131 59.7946C29.7478 59.9304 30.0143 60.0015 30.2854 60.0004C30.5566 59.9994 30.8225 59.9264 31.0562 59.7888C31.2898 59.6512 31.4826 59.454 31.615 59.2173L59.765 8.87983C59.9061 8.62656 59.9723 8.33841 59.956 8.04895C59.9397 7.75949 59.8414 7.48063 59.6727 7.24486C59.504 7.00908 59.2717 6.82609 59.0031 6.7172C58.7344 6.60832 58.4403 6.57801 58.155 6.62983V6.62983Z" fill="black"/>
</g>
<defs>
<clipPath id="clip0_22_291">
<rect width="60" height="60" fill="white"/>
</clipPath>
</defs>
</svg>
